<svg xmlns="http://www.w3.org/2000/svg" width="24" height="24" viewBox="0 0 24 24" fill="none" stroke="currentColor" stroke-width="2" stroke-linecap="round" stroke-linejoin="round" class="lucide lucide-car"><path d="M19 17h2c.6 0 1-.4 1-1v-3c0-.9-.7-1.7-1.5-1.9C18.7 10.6 16 10 16 10s-1.3-1.4-2.2-2.3c-.5-.4-1.1-.7-1.8-.7H5c-.6 0-1.1.4-1.4.9L2 12v9c0 .6.4 1 1 1h2c.6 0 1-.4 1-1v-1h12v1c0 .6.4 1 1 1h2c.6 0 1-.4 1-1v-3.5c0-.8-.5-1.6-1.2-1.9l-1.1-.5zM6 16h12"/><circle cx="8.5" cy="18.5" r="2.5"/><circle cx="15.5" cy="18.5" r="2.5"/></svg>